<svg width="40" height="40" viewBox="0 0 40 40" fill="none" xmlns="http://www.w3.org/2000/svg">
<rect width="40" height="40" rx="8" fill="#000000"/>
<path d="M25.5 12.5C25.5 12.5 23.5 12 21.5 12V16.5C21.5 18.5 19.5 20 17.5 20C15.5 20 13.5 18.5 13.5 16.5C13.5 14.5 15.5 13 17.5 13C17.5 13 17.5 13 17.5 13V17C17.5 17 17.5 17 17.5 17C16.5 17 15.5 16 15.5 15C15.5 14 16.5 13 17.5 13V11C15.5 11 13.5 13 13.5 15C13.5 17 15.5 19 17.5 19C19.5 19 21.5 17 21.5 15V12C23.5 12 25.5 12.5 25.5 12.5Z" fill="white"/>
</svg>
